<?xml version="1.0" encoding="UTF-8" standalone="no"?>
<svg width="456" height="456" viewBox="0 0 456 456" version="1.1" xmlns="http://www.w3.org/2000/svg">
    <defs>
        <radialGradient id="felt" cx="50%" cy="32%" r="78%">
            <stop offset="0%" stop-color="#1B3E35" />
            <stop offset="42%" stop-color="#122C26" />
            <stop offset="100%" stop-color="#05100E" />
        </radialGradient>
        <radialGradient id="lamp" cx="50%" cy="50%" r="50%">
            <stop offset="0%" stop-color="#F2B33D" stop-opacity="0.22" />
            <stop offset="55%" stop-color="#F2B33D" stop-opacity="0.07" />
            <stop offset="100%" stop-color="#F2B33D" stop-opacity="0" />
        </radialGradient>
        <linearGradient id="paper" x1="0" y1="0" x2="0.35" y2="1">
            <stop offset="0%" stop-color="#FFFDF8" />
            <stop offset="100%" stop-color="#E8E1D4" />
        </linearGradient>
        <linearGradient id="paperDim" x1="0" y1="0" x2="0.35" y2="1">
            <stop offset="0%" stop-color="#EFE9DC" />
            <stop offset="100%" stop-color="#D3CBBA" />
        </linearGradient>
        <linearGradient id="amber" x1="0" y1="0" x2="0" y2="1">
            <stop offset="0%" stop-color="#F7C558" />
            <stop offset="100%" stop-color="#C9A227" />
        </linearGradient>
    </defs>

    <rect x="0" y="0" width="456" height="456" fill="url(#felt)" />
    <circle cx="228" cy="140" r="230" fill="url(#lamp)" />

    <g transform="translate(228 238) scale(1.14) translate(-228 -238)">
        <g transform="rotate(-29 228 348)">
            <rect x="170" y="152" width="116" height="162" rx="15" fill="url(#paperDim)" />
        </g>

        <g transform="rotate(29 228 348)">
            <rect x="170" y="152" width="116" height="162" rx="15" fill="url(#paperDim)" />
        </g>

        <g>
            <rect x="170" y="142" width="116" height="162" rx="15" fill="url(#paper)" />

            <g fill="url(#amber)">
                <circle cx="209" cy="228" r="27" />
                <circle cx="247" cy="228" r="27" />
                <path d="M228 172 L272 236 L184 236 Z" />
                <path d="M219 268 C224 252 232 252 237 268 Z" />
            </g>
        </g>
    </g>
</svg>
